<mxfile host="app.diagrams.net" agent="Mozilla/5.0 (X11; Linux x86_64) AppleWebKit/537.36 (KHTML, like Gecko) Chrome/135.0.0.0 Safari/537.36 OPR/120.0.0.0" version="28.0.7">
  <diagram name="Page-1" id="w1XmwcPZqw7hQBSEkGL6">
    <mxGraphModel dx="2030" dy="1192" grid="1" gridSize="10" guides="1" tooltips="1" connect="1" arrows="1" fold="1" page="1" pageScale="1" pageWidth="850" pageHeight="1100" math="0" shadow="0">
      <root>
        <mxCell id="0" />
        <mxCell id="1" parent="0" />
        <mxCell id="1uTF2KHxnOmcGxEmCSP7-3" value="" style="rounded=1;whiteSpace=wrap;html=1;dashed=1;dashPattern=8 8;fillColor=#f5f5f5;fontColor=#333333;strokeColor=#666666;" vertex="1" parent="1">
          <mxGeometry x="620" y="180" width="1490" height="940" as="geometry" />
        </mxCell>
        <mxCell id="1uTF2KHxnOmcGxEmCSP7-2" value="" style="rounded=1;whiteSpace=wrap;html=1;dashed=1;dashPattern=8 8;fillColor=#f5f5f5;fontColor=#333333;strokeColor=#666666;" vertex="1" parent="1">
          <mxGeometry x="305" y="200" width="175" height="720" as="geometry" />
        </mxCell>
        <mxCell id="toGZ8ETKJfE2OcWhgWiJ-19" value="" style="rounded=1;whiteSpace=wrap;html=1;fillColor=#f8cecc;strokeColor=#b85450;" parent="1" vertex="1">
          <mxGeometry x="850" y="710" width="390" height="380" as="geometry" />
        </mxCell>
        <mxCell id="aAM6zOO8ckU4A9BCb9Pb-5" style="edgeStyle=orthogonalEdgeStyle;rounded=0;orthogonalLoop=1;jettySize=auto;html=1;exitX=0.5;exitY=1;exitDx=0;exitDy=0;entryX=0.5;entryY=0;entryDx=0;entryDy=0;" parent="1" source="aAM6zOO8ckU4A9BCb9Pb-1" target="aAM6zOO8ckU4A9BCb9Pb-3" edge="1">
          <mxGeometry relative="1" as="geometry" />
        </mxCell>
        <mxCell id="aAM6zOO8ckU4A9BCb9Pb-1" value="&lt;b&gt;ACC Driving Agent Node&lt;/b&gt;" style="rounded=1;whiteSpace=wrap;html=1;fillColor=#f8cecc;strokeColor=#b85450;" parent="1" vertex="1">
          <mxGeometry x="330" y="510" width="120" height="60" as="geometry" />
        </mxCell>
        <mxCell id="aAM6zOO8ckU4A9BCb9Pb-4" style="edgeStyle=orthogonalEdgeStyle;rounded=0;orthogonalLoop=1;jettySize=auto;html=1;exitX=0.5;exitY=1;exitDx=0;exitDy=0;" parent="1" source="aAM6zOO8ckU4A9BCb9Pb-2" target="aAM6zOO8ckU4A9BCb9Pb-1" edge="1">
          <mxGeometry relative="1" as="geometry" />
        </mxCell>
        <mxCell id="aAM6zOO8ckU4A9BCb9Pb-2" value="&lt;b&gt;ZoneTrackerNode&lt;/b&gt;" style="rounded=1;whiteSpace=wrap;html=1;fillColor=#dae8fc;strokeColor=#6c8ebf;" parent="1" vertex="1">
          <mxGeometry x="330" y="380" width="120" height="60" as="geometry" />
        </mxCell>
        <mxCell id="aAM6zOO8ckU4A9BCb9Pb-3" value="&lt;b&gt;Highway Controller Node&lt;/b&gt;" style="rounded=1;whiteSpace=wrap;html=1;fillColor=#fff2cc;strokeColor=#d6b656;" parent="1" vertex="1">
          <mxGeometry x="330" y="660" width="120" height="60" as="geometry" />
        </mxCell>
        <mxCell id="toGZ8ETKJfE2OcWhgWiJ-1" value="" style="shape=mxgraph.signs.transportation.car_4;html=1;pointerEvents=1;fillColor=#000000;strokeColor=none;verticalLabelPosition=bottom;verticalAlign=top;align=center;" parent="1" vertex="1">
          <mxGeometry x="341" y="830" width="98" height="86" as="geometry" />
        </mxCell>
        <mxCell id="toGZ8ETKJfE2OcWhgWiJ-2" style="edgeStyle=orthogonalEdgeStyle;rounded=0;orthogonalLoop=1;jettySize=auto;html=1;exitX=0.5;exitY=1;exitDx=0;exitDy=0;entryX=0.5;entryY=0;entryDx=0;entryDy=0;entryPerimeter=0;" parent="1" source="aAM6zOO8ckU4A9BCb9Pb-3" target="toGZ8ETKJfE2OcWhgWiJ-1" edge="1">
          <mxGeometry relative="1" as="geometry" />
        </mxCell>
        <mxCell id="toGZ8ETKJfE2OcWhgWiJ-3" value="" style="rounded=1;whiteSpace=wrap;html=1;fillColor=#dae8fc;strokeColor=#6c8ebf;" parent="1" vertex="1">
          <mxGeometry x="850" y="270" width="390" height="360" as="geometry" />
        </mxCell>
        <mxCell id="toGZ8ETKJfE2OcWhgWiJ-4" value="" style="endArrow=classic;html=1;rounded=0;entryX=0.5;entryY=0;entryDx=0;entryDy=0;" parent="1" target="toGZ8ETKJfE2OcWhgWiJ-8" edge="1">
          <mxGeometry width="50" height="50" relative="1" as="geometry">
            <mxPoint x="1045" y="220" as="sourcePoint" />
            <mxPoint x="840" y="380" as="targetPoint" />
          </mxGeometry>
        </mxCell>
        <mxCell id="toGZ8ETKJfE2OcWhgWiJ-7" value="ObjectTrack" style="edgeLabel;html=1;align=center;verticalAlign=middle;resizable=0;points=[];" parent="toGZ8ETKJfE2OcWhgWiJ-4" vertex="1" connectable="0">
          <mxGeometry x="-0.25" y="2" relative="1" as="geometry">
            <mxPoint x="-2" y="-14" as="offset" />
          </mxGeometry>
        </mxCell>
        <mxCell id="toGZ8ETKJfE2OcWhgWiJ-6" style="edgeStyle=orthogonalEdgeStyle;rounded=0;orthogonalLoop=1;jettySize=auto;html=1;exitX=0.5;exitY=1;exitDx=0;exitDy=0;entryX=0.5;entryY=0;entryDx=0;entryDy=0;" parent="1" source="toGZ8ETKJfE2OcWhgWiJ-5" target="aAM6zOO8ckU4A9BCb9Pb-2" edge="1">
          <mxGeometry relative="1" as="geometry" />
        </mxCell>
        <mxCell id="toGZ8ETKJfE2OcWhgWiJ-5" value="&lt;b&gt;Vision perception node&lt;/b&gt;" style="rounded=1;whiteSpace=wrap;html=1;fillColor=#e1d5e7;strokeColor=#9673a6;" parent="1" vertex="1">
          <mxGeometry x="330" y="250" width="120" height="60" as="geometry" />
        </mxCell>
        <mxCell id="toGZ8ETKJfE2OcWhgWiJ-10" style="edgeStyle=orthogonalEdgeStyle;rounded=0;orthogonalLoop=1;jettySize=auto;html=1;exitX=0.5;exitY=1;exitDx=0;exitDy=0;" parent="1" source="toGZ8ETKJfE2OcWhgWiJ-8" target="toGZ8ETKJfE2OcWhgWiJ-9" edge="1">
          <mxGeometry relative="1" as="geometry" />
        </mxCell>
        <mxCell id="toGZ8ETKJfE2OcWhgWiJ-8" value="&lt;b&gt;Popuplate NearVehicleObject&lt;/b&gt;" style="rounded=1;whiteSpace=wrap;html=1;" parent="1" vertex="1">
          <mxGeometry x="985" y="310" width="120" height="60" as="geometry" />
        </mxCell>
        <mxCell id="toGZ8ETKJfE2OcWhgWiJ-13" style="edgeStyle=orthogonalEdgeStyle;rounded=0;orthogonalLoop=1;jettySize=auto;html=1;exitX=0.5;exitY=1;exitDx=0;exitDy=0;entryX=0.5;entryY=0;entryDx=0;entryDy=0;" parent="1" source="toGZ8ETKJfE2OcWhgWiJ-9" target="toGZ8ETKJfE2OcWhgWiJ-11" edge="1">
          <mxGeometry relative="1" as="geometry" />
        </mxCell>
        <mxCell id="toGZ8ETKJfE2OcWhgWiJ-9" value="&lt;b&gt;Object Zone filter&lt;/b&gt;" style="rounded=1;whiteSpace=wrap;html=1;" parent="1" vertex="1">
          <mxGeometry x="987.5" y="400" width="115" height="50" as="geometry" />
        </mxCell>
        <mxCell id="toGZ8ETKJfE2OcWhgWiJ-15" style="edgeStyle=orthogonalEdgeStyle;rounded=0;orthogonalLoop=1;jettySize=auto;html=1;exitX=0.5;exitY=1;exitDx=0;exitDy=0;" parent="1" source="toGZ8ETKJfE2OcWhgWiJ-11" target="toGZ8ETKJfE2OcWhgWiJ-12" edge="1">
          <mxGeometry relative="1" as="geometry" />
        </mxCell>
        <mxCell id="toGZ8ETKJfE2OcWhgWiJ-11" value="&lt;b&gt;Merge filter&lt;/b&gt;" style="rounded=1;whiteSpace=wrap;html=1;" parent="1" vertex="1">
          <mxGeometry x="985" y="475" width="115" height="50" as="geometry" />
        </mxCell>
        <mxCell id="toGZ8ETKJfE2OcWhgWiJ-16" style="edgeStyle=orthogonalEdgeStyle;rounded=0;orthogonalLoop=1;jettySize=auto;html=1;exitX=0.5;exitY=1;exitDx=0;exitDy=0;" parent="1" source="toGZ8ETKJfE2OcWhgWiJ-12" edge="1">
          <mxGeometry relative="1" as="geometry">
            <mxPoint x="1043" y="710" as="targetPoint" />
          </mxGeometry>
        </mxCell>
        <mxCell id="toGZ8ETKJfE2OcWhgWiJ-17" value="ObjectsInLane" style="edgeLabel;html=1;align=center;verticalAlign=middle;resizable=0;points=[];" parent="toGZ8ETKJfE2OcWhgWiJ-16" vertex="1" connectable="0">
          <mxGeometry x="0.0643" y="-4" relative="1" as="geometry">
            <mxPoint as="offset" />
          </mxGeometry>
        </mxCell>
        <mxCell id="toGZ8ETKJfE2OcWhgWiJ-12" value="&lt;b&gt;create | delete | update&lt;br&gt;R1Observers&lt;/b&gt;" style="rounded=1;whiteSpace=wrap;html=1;" parent="1" vertex="1">
          <mxGeometry x="985" y="560" width="115" height="50" as="geometry" />
        </mxCell>
        <mxCell id="toGZ8ETKJfE2OcWhgWiJ-18" value="&lt;b&gt;ZoneTrackNode&lt;/b&gt;" style="text;html=1;align=center;verticalAlign=middle;whiteSpace=wrap;rounded=0;" parent="1" vertex="1">
          <mxGeometry x="880" y="280" width="60" height="30" as="geometry" />
        </mxCell>
        <mxCell id="toGZ8ETKJfE2OcWhgWiJ-20" value="&lt;b&gt;Driving Agent Node&lt;/b&gt;" style="text;html=1;align=center;verticalAlign=middle;whiteSpace=wrap;rounded=0;" parent="1" vertex="1">
          <mxGeometry x="870" y="720" width="110" height="30" as="geometry" />
        </mxCell>
        <mxCell id="toGZ8ETKJfE2OcWhgWiJ-21" value="" style="endArrow=classic;html=1;rounded=0;entryX=0;entryY=0.5;entryDx=0;entryDy=0;" parent="1" target="toGZ8ETKJfE2OcWhgWiJ-9" edge="1">
          <mxGeometry width="50" height="50" relative="1" as="geometry">
            <mxPoint x="770" y="425" as="sourcePoint" />
            <mxPoint x="740" y="420" as="targetPoint" />
          </mxGeometry>
        </mxCell>
        <mxCell id="toGZ8ETKJfE2OcWhgWiJ-22" value="Steering Curvat&lt;span style=&quot;background-color: light-dark(#ffffff, var(--ge-dark-color, #121212)); color: light-dark(rgb(0, 0, 0), rgb(255, 255, 255));&quot;&gt;ure&lt;/span&gt;" style="edgeLabel;html=1;align=center;verticalAlign=middle;resizable=0;points=[];" parent="toGZ8ETKJfE2OcWhgWiJ-21" vertex="1" connectable="0">
          <mxGeometry x="-0.25" y="2" relative="1" as="geometry">
            <mxPoint x="-2" y="-14" as="offset" />
          </mxGeometry>
        </mxCell>
        <mxCell id="toGZ8ETKJfE2OcWhgWiJ-25" value="" style="endArrow=classic;html=1;rounded=0;entryX=0;entryY=0.25;entryDx=0;entryDy=0;" parent="1" target="toGZ8ETKJfE2OcWhgWiJ-19" edge="1">
          <mxGeometry width="50" height="50" relative="1" as="geometry">
            <mxPoint x="630" y="805" as="sourcePoint" />
            <mxPoint x="760" y="730" as="targetPoint" />
          </mxGeometry>
        </mxCell>
        <mxCell id="toGZ8ETKJfE2OcWhgWiJ-26" value="MobileyeEgoLanes" style="edgeLabel;html=1;align=center;verticalAlign=middle;resizable=0;points=[];" parent="toGZ8ETKJfE2OcWhgWiJ-25" vertex="1" connectable="0">
          <mxGeometry x="-0.1714" y="-3" relative="1" as="geometry">
            <mxPoint x="3" y="-13" as="offset" />
          </mxGeometry>
        </mxCell>
        <mxCell id="toGZ8ETKJfE2OcWhgWiJ-27" value="" style="endArrow=classic;html=1;rounded=0;entryX=0;entryY=0.5;entryDx=0;entryDy=0;" parent="1" target="toGZ8ETKJfE2OcWhgWiJ-19" edge="1">
          <mxGeometry width="50" height="50" relative="1" as="geometry">
            <mxPoint x="630" y="900" as="sourcePoint" />
            <mxPoint x="840" y="779.5" as="targetPoint" />
          </mxGeometry>
        </mxCell>
        <mxCell id="toGZ8ETKJfE2OcWhgWiJ-28" value="EgoLaneCenter(not used)" style="edgeLabel;html=1;align=center;verticalAlign=middle;resizable=0;points=[];" parent="toGZ8ETKJfE2OcWhgWiJ-27" vertex="1" connectable="0">
          <mxGeometry x="-0.1714" y="-3" relative="1" as="geometry">
            <mxPoint x="3" y="-13" as="offset" />
          </mxGeometry>
        </mxCell>
        <mxCell id="toGZ8ETKJfE2OcWhgWiJ-31" value="" style="endArrow=classic;html=1;rounded=0;entryX=0;entryY=0.5;entryDx=0;entryDy=0;" parent="1" edge="1">
          <mxGeometry width="50" height="50" relative="1" as="geometry">
            <mxPoint x="640" y="980" as="sourcePoint" />
            <mxPoint x="850" y="980" as="targetPoint" />
          </mxGeometry>
        </mxCell>
        <mxCell id="toGZ8ETKJfE2OcWhgWiJ-32" value="SteeringCurvature" style="edgeLabel;html=1;align=center;verticalAlign=middle;resizable=0;points=[];" parent="toGZ8ETKJfE2OcWhgWiJ-31" vertex="1" connectable="0">
          <mxGeometry x="-0.1714" y="-3" relative="1" as="geometry">
            <mxPoint x="3" y="-13" as="offset" />
          </mxGeometry>
        </mxCell>
        <mxCell id="toGZ8ETKJfE2OcWhgWiJ-39" style="edgeStyle=orthogonalEdgeStyle;rounded=0;orthogonalLoop=1;jettySize=auto;html=1;exitX=0.5;exitY=1;exitDx=0;exitDy=0;entryX=0.5;entryY=0;entryDx=0;entryDy=0;" parent="1" source="toGZ8ETKJfE2OcWhgWiJ-36" target="toGZ8ETKJfE2OcWhgWiJ-38" edge="1">
          <mxGeometry relative="1" as="geometry" />
        </mxCell>
        <mxCell id="toGZ8ETKJfE2OcWhgWiJ-36" value="&lt;b&gt;IsMobileyeOK&lt;/b&gt;" style="rhombus;whiteSpace=wrap;html=1;" parent="1" vertex="1">
          <mxGeometry x="1002.5" y="740" width="80" height="80" as="geometry" />
        </mxCell>
        <mxCell id="toGZ8ETKJfE2OcWhgWiJ-41" style="edgeStyle=orthogonalEdgeStyle;rounded=0;orthogonalLoop=1;jettySize=auto;html=1;exitX=0.5;exitY=1;exitDx=0;exitDy=0;entryX=0.5;entryY=0;entryDx=0;entryDy=0;" parent="1" source="toGZ8ETKJfE2OcWhgWiJ-38" target="toGZ8ETKJfE2OcWhgWiJ-40" edge="1">
          <mxGeometry relative="1" as="geometry" />
        </mxCell>
        <mxCell id="toGZ8ETKJfE2OcWhgWiJ-38" value="&lt;b&gt;Find ACC target obj&lt;/b&gt;" style="rounded=1;whiteSpace=wrap;html=1;" parent="1" vertex="1">
          <mxGeometry x="982.5" y="856" width="120" height="60" as="geometry" />
        </mxCell>
        <mxCell id="toGZ8ETKJfE2OcWhgWiJ-43" style="edgeStyle=orthogonalEdgeStyle;rounded=0;orthogonalLoop=1;jettySize=auto;html=1;exitX=0.5;exitY=1;exitDx=0;exitDy=0;entryX=0.5;entryY=0;entryDx=0;entryDy=0;" parent="1" source="toGZ8ETKJfE2OcWhgWiJ-40" target="toGZ8ETKJfE2OcWhgWiJ-42" edge="1">
          <mxGeometry relative="1" as="geometry" />
        </mxCell>
        <mxCell id="toGZ8ETKJfE2OcWhgWiJ-40" value="&lt;b&gt;Update ACC state&lt;/b&gt;" style="rounded=1;whiteSpace=wrap;html=1;" parent="1" vertex="1">
          <mxGeometry x="982.5" y="940" width="120" height="60" as="geometry" />
        </mxCell>
        <mxCell id="toGZ8ETKJfE2OcWhgWiJ-42" value="&lt;b&gt;Update Highway state&lt;/b&gt;" style="rounded=1;whiteSpace=wrap;html=1;" parent="1" vertex="1">
          <mxGeometry x="985" y="1020" width="120" height="60" as="geometry" />
        </mxCell>
        <mxCell id="toGZ8ETKJfE2OcWhgWiJ-44" value="" style="rounded=1;whiteSpace=wrap;html=1;fillColor=#fff2cc;strokeColor=#d6b656;" parent="1" vertex="1">
          <mxGeometry x="1400" y="500" width="450" height="380" as="geometry" />
        </mxCell>
        <mxCell id="toGZ8ETKJfE2OcWhgWiJ-45" value="&lt;b&gt;Highway Controller Node&lt;/b&gt;" style="text;html=1;align=center;verticalAlign=middle;whiteSpace=wrap;rounded=0;" parent="1" vertex="1">
          <mxGeometry x="1440" y="510" width="110" height="30" as="geometry" />
        </mxCell>
        <mxCell id="toGZ8ETKJfE2OcWhgWiJ-48" style="edgeStyle=orthogonalEdgeStyle;rounded=0;orthogonalLoop=1;jettySize=auto;html=1;exitX=1;exitY=0.5;exitDx=0;exitDy=0;entryX=0;entryY=0.75;entryDx=0;entryDy=0;" parent="1" source="toGZ8ETKJfE2OcWhgWiJ-19" target="toGZ8ETKJfE2OcWhgWiJ-62" edge="1">
          <mxGeometry relative="1" as="geometry">
            <Array as="points">
              <mxPoint x="1290" y="900" />
              <mxPoint x="1290" y="642" />
            </Array>
          </mxGeometry>
        </mxCell>
        <mxCell id="toGZ8ETKJfE2OcWhgWiJ-49" value="HighwayState" style="edgeLabel;html=1;align=center;verticalAlign=middle;resizable=0;points=[];" parent="toGZ8ETKJfE2OcWhgWiJ-48" vertex="1" connectable="0">
          <mxGeometry x="-0.4669" y="-2" relative="1" as="geometry">
            <mxPoint as="offset" />
          </mxGeometry>
        </mxCell>
        <mxCell id="toGZ8ETKJfE2OcWhgWiJ-59" style="edgeStyle=orthogonalEdgeStyle;rounded=0;orthogonalLoop=1;jettySize=auto;html=1;exitX=0.5;exitY=0;exitDx=0;exitDy=0;exitPerimeter=0;entryX=0.5;entryY=0;entryDx=0;entryDy=0;" parent="1" source="toGZ8ETKJfE2OcWhgWiJ-50" target="toGZ8ETKJfE2OcWhgWiJ-44" edge="1">
          <mxGeometry relative="1" as="geometry">
            <Array as="points">
              <mxPoint x="2049" y="470" />
              <mxPoint x="1625" y="470" />
            </Array>
          </mxGeometry>
        </mxCell>
        <mxCell id="toGZ8ETKJfE2OcWhgWiJ-60" value="UlcRpt , SteeringRpt" style="edgeLabel;html=1;align=center;verticalAlign=middle;resizable=0;points=[];" parent="toGZ8ETKJfE2OcWhgWiJ-59" vertex="1" connectable="0">
          <mxGeometry x="0.181" y="3" relative="1" as="geometry">
            <mxPoint as="offset" />
          </mxGeometry>
        </mxCell>
        <mxCell id="toGZ8ETKJfE2OcWhgWiJ-50" value="" style="shape=mxgraph.signs.transportation.car_4;html=1;pointerEvents=1;fillColor=#000000;strokeColor=none;verticalLabelPosition=bottom;verticalAlign=top;align=center;" parent="1" vertex="1">
          <mxGeometry x="2000" y="647" width="98" height="86" as="geometry" />
        </mxCell>
        <mxCell id="toGZ8ETKJfE2OcWhgWiJ-51" value="" style="endArrow=classic;html=1;rounded=0;entryX=0;entryY=0.5;entryDx=0;entryDy=0;" parent="1" edge="1">
          <mxGeometry width="50" height="50" relative="1" as="geometry">
            <mxPoint x="1340" y="720.5" as="sourcePoint" />
            <mxPoint x="1430" y="720" as="targetPoint" />
          </mxGeometry>
        </mxCell>
        <mxCell id="toGZ8ETKJfE2OcWhgWiJ-52" value="imuData" style="edgeLabel;html=1;align=center;verticalAlign=middle;resizable=0;points=[];" parent="toGZ8ETKJfE2OcWhgWiJ-51" vertex="1" connectable="0">
          <mxGeometry x="-0.25" y="2" relative="1" as="geometry">
            <mxPoint x="-2" y="-14" as="offset" />
          </mxGeometry>
        </mxCell>
        <mxCell id="toGZ8ETKJfE2OcWhgWiJ-74" style="edgeStyle=orthogonalEdgeStyle;rounded=0;orthogonalLoop=1;jettySize=auto;html=1;exitX=1;exitY=0.5;exitDx=0;exitDy=0;" parent="1" source="toGZ8ETKJfE2OcWhgWiJ-61" target="toGZ8ETKJfE2OcWhgWiJ-73" edge="1">
          <mxGeometry relative="1" as="geometry" />
        </mxCell>
        <mxCell id="toGZ8ETKJfE2OcWhgWiJ-61" value="&lt;b&gt;TargetPathSelection&lt;/b&gt;" style="rounded=1;whiteSpace=wrap;html=1;" parent="1" vertex="1">
          <mxGeometry x="1430" y="705" width="110" height="75" as="geometry" />
        </mxCell>
        <mxCell id="toGZ8ETKJfE2OcWhgWiJ-62" value="&lt;b&gt;LonController&lt;/b&gt;" style="rounded=1;whiteSpace=wrap;html=1;" parent="1" vertex="1">
          <mxGeometry x="1620" y="587" width="120" height="73" as="geometry" />
        </mxCell>
        <mxCell id="toGZ8ETKJfE2OcWhgWiJ-63" value="&lt;b&gt;LatController&lt;/b&gt;" style="rounded=1;whiteSpace=wrap;html=1;" parent="1" vertex="1">
          <mxGeometry x="1710" y="705" width="120" height="75" as="geometry" />
        </mxCell>
        <mxCell id="toGZ8ETKJfE2OcWhgWiJ-67" style="edgeStyle=orthogonalEdgeStyle;rounded=0;orthogonalLoop=1;jettySize=auto;html=1;exitX=1;exitY=0.5;exitDx=0;exitDy=0;entryX=-0.007;entryY=0.609;entryDx=0;entryDy=0;entryPerimeter=0;" parent="1" source="toGZ8ETKJfE2OcWhgWiJ-63" target="toGZ8ETKJfE2OcWhgWiJ-50" edge="1">
          <mxGeometry relative="1" as="geometry" />
        </mxCell>
        <mxCell id="toGZ8ETKJfE2OcWhgWiJ-68" value="SteeringCmd" style="edgeLabel;html=1;align=center;verticalAlign=middle;resizable=0;points=[];" parent="toGZ8ETKJfE2OcWhgWiJ-67" vertex="1" connectable="0">
          <mxGeometry x="0.3426" y="2" relative="1" as="geometry">
            <mxPoint as="offset" />
          </mxGeometry>
        </mxCell>
        <mxCell id="toGZ8ETKJfE2OcWhgWiJ-69" style="edgeStyle=orthogonalEdgeStyle;rounded=0;orthogonalLoop=1;jettySize=auto;html=1;exitX=1;exitY=0.5;exitDx=0;exitDy=0;entryX=0;entryY=0.174;entryDx=0;entryDy=0;entryPerimeter=0;" parent="1" source="toGZ8ETKJfE2OcWhgWiJ-62" target="toGZ8ETKJfE2OcWhgWiJ-50" edge="1">
          <mxGeometry relative="1" as="geometry" />
        </mxCell>
        <mxCell id="toGZ8ETKJfE2OcWhgWiJ-70" value="UlcCmd" style="edgeLabel;html=1;align=center;verticalAlign=middle;resizable=0;points=[];" parent="toGZ8ETKJfE2OcWhgWiJ-69" vertex="1" connectable="0">
          <mxGeometry x="0.5257" y="-1" relative="1" as="geometry">
            <mxPoint as="offset" />
          </mxGeometry>
        </mxCell>
        <mxCell id="toGZ8ETKJfE2OcWhgWiJ-71" value="" style="endArrow=classic;html=1;rounded=0;entryX=0;entryY=0.25;entryDx=0;entryDy=0;" parent="1" target="toGZ8ETKJfE2OcWhgWiJ-62" edge="1">
          <mxGeometry width="50" height="50" relative="1" as="geometry">
            <mxPoint x="1350" y="605" as="sourcePoint" />
            <mxPoint x="1350" y="690" as="targetPoint" />
          </mxGeometry>
        </mxCell>
        <mxCell id="toGZ8ETKJfE2OcWhgWiJ-72" value="acc set_speed , follow distance" style="edgeLabel;html=1;align=center;verticalAlign=middle;resizable=0;points=[];" parent="toGZ8ETKJfE2OcWhgWiJ-71" vertex="1" connectable="0">
          <mxGeometry x="-0.25" y="2" relative="1" as="geometry">
            <mxPoint x="19" y="-14" as="offset" />
          </mxGeometry>
        </mxCell>
        <mxCell id="toGZ8ETKJfE2OcWhgWiJ-75" style="edgeStyle=orthogonalEdgeStyle;rounded=0;orthogonalLoop=1;jettySize=auto;html=1;exitX=1;exitY=0.5;exitDx=0;exitDy=0;" parent="1" source="toGZ8ETKJfE2OcWhgWiJ-73" target="toGZ8ETKJfE2OcWhgWiJ-63" edge="1">
          <mxGeometry relative="1" as="geometry" />
        </mxCell>
        <mxCell id="toGZ8ETKJfE2OcWhgWiJ-73" value="&lt;b&gt;DeadReckoning&lt;/b&gt;" style="rounded=1;whiteSpace=wrap;html=1;" parent="1" vertex="1">
          <mxGeometry x="1570" y="705" width="110" height="75" as="geometry" />
        </mxCell>
        <mxCell id="toGZ8ETKJfE2OcWhgWiJ-76" value="" style="endArrow=classic;html=1;rounded=0;entryX=0;entryY=0.5;entryDx=0;entryDy=0;" parent="1" edge="1">
          <mxGeometry width="50" height="50" relative="1" as="geometry">
            <mxPoint x="1340" y="760" as="sourcePoint" />
            <mxPoint x="1430" y="760" as="targetPoint" />
          </mxGeometry>
        </mxCell>
        <mxCell id="toGZ8ETKJfE2OcWhgWiJ-77" value="EgoCenterPath" style="edgeLabel;html=1;align=center;verticalAlign=middle;resizable=0;points=[];" parent="toGZ8ETKJfE2OcWhgWiJ-76" vertex="1" connectable="0">
          <mxGeometry x="-0.25" y="2" relative="1" as="geometry">
            <mxPoint x="-2" y="-14" as="offset" />
          </mxGeometry>
        </mxCell>
        <mxCell id="toGZ8ETKJfE2OcWhgWiJ-78" style="edgeStyle=orthogonalEdgeStyle;rounded=0;orthogonalLoop=1;jettySize=auto;html=1;exitX=1;exitY=0.25;exitDx=0;exitDy=0;" parent="1" source="toGZ8ETKJfE2OcWhgWiJ-19" target="toGZ8ETKJfE2OcWhgWiJ-62" edge="1">
          <mxGeometry relative="1" as="geometry">
            <mxPoint x="1500" y="390" as="targetPoint" />
            <Array as="points">
              <mxPoint x="1250" y="805" />
              <mxPoint x="1250" y="624" />
            </Array>
          </mxGeometry>
        </mxCell>
        <mxCell id="toGZ8ETKJfE2OcWhgWiJ-79" value="Acc Target Obj" style="edgeLabel;html=1;align=center;verticalAlign=middle;resizable=0;points=[];" parent="toGZ8ETKJfE2OcWhgWiJ-78" vertex="1" connectable="0">
          <mxGeometry x="-0.1099" y="3" relative="1" as="geometry">
            <mxPoint as="offset" />
          </mxGeometry>
        </mxCell>
        <mxCell id="1uTF2KHxnOmcGxEmCSP7-4" value="&lt;font style=&quot;font-size: 14px;&quot;&gt;&lt;b&gt;High Level DD&lt;/b&gt;&lt;/font&gt;" style="text;html=1;align=center;verticalAlign=middle;whiteSpace=wrap;rounded=0;" vertex="1" parent="1">
          <mxGeometry x="341" y="150" width="110" height="30" as="geometry" />
        </mxCell>
        <mxCell id="1uTF2KHxnOmcGxEmCSP7-6" value="&lt;b&gt;&lt;font style=&quot;font-size: 14px;&quot;&gt;Functional DD&lt;/font&gt;&lt;/b&gt;" style="text;html=1;align=center;verticalAlign=middle;whiteSpace=wrap;rounded=0;" vertex="1" parent="1">
          <mxGeometry x="710" y="200" width="110" height="30" as="geometry" />
        </mxCell>
      </root>
    </mxGraphModel>
  </diagram>
</mxfile>
